<svg version="1.2" xmlns="http://www.w3.org/2000/svg" viewBox="0 0 1637 412" width="1637" height="412">
	<title>Daily7-svg</title>
	<style>
		.s0 { fill: #ffffed } 
		.s1 { fill: #000000 } 
	</style>
	<path id="Layer" class="s0" d="m694 0h248v116h-248z"/>
	<path id="Layer" fill-rule="evenodd" class="s1" d="m809.4 20.9c0.7 0 1.3 0.2 1.3 0.4 0 0.4 0.1 1.2 0.4 2 0.2 1 0.1 1.4-0.3 1.1-0.3-0.2-1 0-1.4 0.5-1 1.2-1.4 1.3 8.1-0.6 4.4-0.9 8.5-1.5 9-1.3 0.8 0.3-0.2 4.9-3.4 15-0.6 2-1.9 6.2-2.8 9.3-0.9 3-1.9 6.1-2.2 6.6-0.9 1.6 0.1 1.8 2.2 0.5 0.9-0.6 2-1 2.4-0.9 0.5 0.3 0.7-0.1 0.5-1.1-0.2-1.4 0.2-1.8 4-3.6 3.4-1.6 5-2 7.8-1.9 4.4 0.1 5.7 0.7 7.1 3.4 1.2 2.4 1.4 9 0.4 12.5-0.5 1.4-1.6 5.4-2.8 9-1 3.6-2.1 7.3-2.4 8.3-1.1 3.4-0.8 3.6 2.5 1.9 3.3-1.8 4.4-1.7 4.4 0.6 0 1.7-4.5 6.4-7.2 7.5-5.1 2.1-10.5 1.5-12.1-1.5-1-1.9-0.2-6.8 2.4-13.7 2.3-6.4 3.8-12.2 4.3-17l0.3-2.9h-2.1c-1.2 0-3.6 1-6.2 2.5-3.3 1.9-4.6 3.2-6.4 6-2.8 4.6-5.4 11.3-7.5 19.6-0.9 3.5-1.8 6.8-2.2 7.2-0.3 0.7-1.6 0.8-5.5 0.4-2.7-0.2-5-0.7-5-0.9 0-1.5 4-16.5 6.2-23.4 0.3-0.9 0.9-3.1 1.2-4.6 0.7-3.4 3.1-12.2 5.3-19.2 0.9-2.9 1.7-6.7 1.8-8.3 0.1-2.9 0-3.2-1.3-3.3-0.9-0.2-2.2 0.3-2.8 1-3.7 3.2-8.1 3.8-17.8 2.5-4.3-0.6-5.3-0.6-6 0.2-0.5 0.4-2.3 5.8-4 12-1.7 6.1-3.8 13.4-4.6 16.1-0.8 2.7-1.8 6.2-2.2 7.7-0.4 1.6-1.1 4.2-1.5 5.9-2.4 8.4-2 9.6 3.4 10.1 3 0.3 3.1 0.4 3.1 2.4v2.1h-16c-16.9 0-18.5-0.2-18.1-2.8 0.2-0.7 1-1.3 2.1-1.7 1.1-0.2 3.1-0.7 4.5-1.1 4.4-1.1 5.3-2.7 8.3-15.2 0.7-3 1.6-6.2 1.9-7.1 0.4-0.9 1.5-4.8 2.5-8.7 1-3.9 2.1-8 2.4-9 1.8-6.1 3.1-12.3 2.5-12.9-0.4-0.4-2.7-0.4-5.9-0.1-7.4 0.6-12 3-15.7 7.9-2 2.6-3.1 3.6-4.3 3.6-1.7 0-2.6-1.6-1.5-2.7 0.4-0.4 0.7-1.2 0.7-1.9 0-0.6 0.7-2.5 1.5-4.2 0.9-1.7 1.6-3.5 1.6-4 0-1.5 3.6-5 6-5.8 3.7-1.2 16.9-1.5 28.7-0.6 6 0.4 14.4 0.9 18.7 0.9 6.9 0 8.1-0.2 9.2-1.2 0.7-0.7 1.3-1.7 1.3-2.4 0-0.7 0.4-1.1 1.2-1.1zm10.2 4.4c-0.6 0.3-2.4 0.8-4 1.3l-2.8 0.6 1.4 1.2c1.3 0.9 1.4 1.3 0.8 2.4-0.4 0.8-1.7 4.9-2.8 9.2-2.6 10.1-6.8 25.5-8.1 29.9-2.7 9.1-4.6 17-4.3 17.3 0.8 0.8 2.4-1 3.4-3.9 0.6-1.8 1.6-4.6 2.1-6.2 1.1-3.1 3.6-11.5 4.7-15.9 0.3-1.1 1.1-4.5 1.9-7.4 0.7-2.9 2.2-8.6 3.2-12.7 0.9-4.1 2.1-8 2.4-8.5 0.3-0.6 0.6-1.7 0.6-2.4 0-0.7 0.4-1.2 0.8-1.2 0.7 0 3.5-3.2 3.5-4.1 0-0.4-1.3-0.3-2.8 0.4zm-69.2 1.8c-2.4 0.7-5.5 3.7-5.5 5.4 0 0.6 0.7 0.4 2.7-0.9 3.4-2.4 7.7-3.7 13.4-4.2 5-0.3 22.7 0.5 32.3 1.6 5.8 0.7 11.1 0.3 11.1-0.6 0-0.3-2-0.7-4.4-0.8-2.5-0.2-7.8-0.7-11.7-1-14.1-1.3-33.1-1-37.9 0.5zm20.3 5.1c-0.1 0.4-0.8 3.3-1.5 6.4-1.9 8.3-2.6 11-3.2 12.1-0.3 0.5-0.9 2.9-1.5 5.3-0.6 2.4-1.6 6-2.3 8-0.7 2.1-1.8 6.2-2.5 9.3-2.2 9.7-3.1 11.8-5.8 12.8-1 0.4-1.6 0.8-1.2 0.9 0.4 0.2 1.8-0.3 3-0.9 1.3-0.8 2.7-1.2 3.1-1 0.9 0.3 3.5-4.9 3.5-7.1 0-0.6 0.3-1.6 0.8-2 1.1-1.2 2.4-6 2-7.3-0.3-0.8 0.1-1.9 0.9-3.1 0.7-1 1.2-2.4 1.1-2.9-0.1-0.7 0.1-1.5 0.3-2 0.3-0.3 0.3-0.7 0.1-0.7-0.2 0 0-0.7 0.6-1.5 0.6-0.9 0.7-1.6 0.3-1.7-0.4-0.2-0.5-1-0.2-2 0.2-0.9 0.7-1.4 1-1.3 0.8 0.5 1.7-0.9 1.7-2.7 0-0.7 0.3-1.4 0.6-1.4 0.7 0 2.7-6.4 2.2-7.5-0.2-0.6 0.5-2.9 1.5-5.2 1.1-2.3 1.8-4.4 1.6-4.7-0.5-0.9-5.9-0.7-6.1 0.2zm58.6 17.3c0 0.4 0.5 0.4 1.2 0.3 0.7-0.3 2.8 0 4.7 0.6 3.6 1.2 4.9 0.9 3.3-0.6-1.5-1.6-9.2-1.8-9.2-0.3zm-1.3 1.2c-0.2 0-0.7 0.3-1.2 0.6-0.7 0.4-0.4 0.6 1.2 0.6 1.6 0 1.9-0.2 1.3-0.6-0.5-0.3-1.1-0.6-1.3-0.6zm7.7 1.7c-0.5 0.2-0.9 1.3-0.9 2.9 0 1.7-0.4 3.2-1.1 4.1-0.7 0.8-1.3 2.9-1.6 4.6-0.2 1.7-1 4.9-1.8 7.2-4 11-4.9 15.5-3.3 15.5 1.6 0 2.8-3.1 6-15.5 0.7-3 2-7.4 2.8-9.9 0.8-2.5 1.5-5.5 1.5-6.6 0-2.2-0.4-2.8-1.6-2.3zm-19.8 6.5c-2.3 2.5-2.4 3.3-0.1 1.2 1.3-1.2 2.3-2.3 2.3-2.4 0-0.6-1.1 0.1-2.2 1.2zm-53.2 25.9c0.2 0.7 0.6 1.3 0.9 1.3 0.6 0 0.6-0.2 0.2-1.5-0.6-1.5-1.5-1.3-1.1 0.2zm68.4-0.6c-0.3 0-0.5 0.2-0.3 0.6 0.2 0.3 0.5 0.6 0.7 0.6 0.1 0 0.2-0.3 0.2-0.6 0-0.4-0.3-0.6-0.6-0.6zm-66 1.2c-0.2 0.3 0.1 0.7 0.6 0.9 1.7 0.7 2.3 0.4 1.5-0.6-0.8-1-1.6-1.1-2.1-0.3zm66.6 0.8c-0.8 0-1.1 0.1-0.7 0.3 0.4 0.1 1.1 0.1 1.5 0 0.4-0.2 0.1-0.3-0.8-0.3z"/>
	<path id="Layer" class="s1" d="m769.8 50.4c0 0.7 0.2 0.9 0.3 0.4 0.2-0.4 0.2-1 0-1.2-0.2-0.2-0.4 0.2-0.3 0.8z"/>
	<path id="Layer" fill-rule="evenodd" class="s1" d="m884.3 49.1c3.7 2.5 4.8 5 4.3 9.8-0.2 3-0.5 3.5-3.4 6.1-2.7 2.3-4.3 3.1-9 4.5-3.6 1-7.7 1.7-11.1 1.8-3 0.2-5.6 0.4-5.7 0.6-0.2 0.2-0.4 1.6-0.5 3.1 0 5 3.4 8 9.4 8 3.2 0 7.7-1.5 9.3-3 0.5-0.5 1.4-0.7 2-0.6 0.7 0.2 1 0 0.8-0.5-0.2-0.4 0.1-0.9 0.6-1.1 1.4-0.6 3 1.3 2.5 2.7-0.6 1.9-5.1 5.9-9.8 8.8-5.2 3.1-9.6 3.7-16 2.1-3.2-0.8-4.4-1.5-6.5-3.7-2.8-3-3.9-5.9-3.9-10.6 0-13.8 11.5-28.3 23.8-30.1 5.7-0.7 9.7-0.1 13.2 2.1zm-8.5-0.3c0 0.3 0.7 1 1.5 1.4 0.9 0.4 1.8 1.4 2 2.2 0.6 2.5-0.9 7.8-2.8 9.9-1.8 2-5.5 3.9-7.6 3.9-0.6 0-1.3 0.3-1.5 0.7-0.4 0.5 0.3 0.6 2.2 0.3 2.5-0.4 7.8-3.1 9.6-5 1.6-1.6 3.6-6.4 3.7-8.9 0.1-2.3-0.1-2.8-1.5-3.5-2.4-1.2-5.6-1.8-5.6-1zm-13.5 3.7c-7.1 3.8-12.6 13.8-12.6 22.9 0 2.7 0.2 3.3 1 3 0.7-0.3 0.9 0.1 0.9 2 0 1.6 0.4 2.7 1.2 3.4 1.2 1.1 1.2 1.1 1.8-0.1 0.4-0.7 0.5-1.8 0.3-2.4-0.2-0.6 0.5-0.1 1.5 1 1.2 1.2 2 2.4 2 2.6 0 0.8-0.8 0.7-1.7-0.2-0.8-0.8-2.6-0.3-2.6 0.7 0 1 3 1.5 4 0.7 0.8-0.7 1.4-0.7 3.4 0 4 1.3 11.4 0 14.5-2.6 0.4-0.3 1.4-1.1 2.3-1.7 1.5-1.2 1.5-1.3 0.2-0.9-0.8 0.2-1.5 0.6-1.5 0.8 0 0.3-1.1 1-2.6 1.6-4.9 2.2-13.8 1.1-16.9-2.2-3.2-3.3-4.3-14-2-19.4 1-2.4 2.4-2.8 1.9-0.6-0.2 1.4-0.2 1.5 0.4 0.6 0.4-0.6 0.6-1.5 0.4-2-0.7-1.8 8.1-9.6 11-9.6 0.5 0 1.1-0.3 1.3-0.7 0.9-1.4-1.1-0.6-8.2 3.1zm8.2 0.8c-4.6 2.5-12.1 13.1-9.8 14 1.3 0.5 11.2-3.6 14.5-6.1 0.8-0.6 1.5-2.1 1.8-3.6 0.4-2.3 0.3-2.9-0.7-3.9-1.3-1.3-3.9-1.5-5.8-0.4z"/>
	<path id="Layer" class="s1" d="m851.1 69.9c0 0.9 0.1 1.2 0.3 0.8 0.1-0.4 0.1-1.1 0-1.6-0.2-0.4-0.3 0-0.3 0.8z"/>
	<path id="Layer" fill-rule="evenodd" class="s1" d="m359.7 62.8l93.9 0.2 0.3 3.8c0.1 2-0.2 13.2-0.6 24.8-0.9 22.6-1.2 23.4-7.6 21.8-2.5-0.7-4.6-3.5-8.5-11.2-8.7-17.4-10.7-18-60.9-18.2l-32-0.1-0.4 31.5-0.3 31.4 8.1 1c20.2 2 55.1 0.2 63.9-3.2 4.4-1.9 9.3-9.2 9.3-14.2 0-3.3 0.6-3.8 3.8-4.1 7.2-0.4 7.2 0 6.2 33.5-0.5 16.9-1.2 31.8-1.4 33-0.6 1.6-2 2.4-4.3 2.4-3.2 0-4-0.9-6.3-7.6-3.3-9.3-6.9-12.1-18.1-13.7-10.3-1.5-59.5-1.7-60.3-0.3-0.4 0.6-0.4 14.7 0 31.4 0.8 29 1 30.4 3.6 32 3.9 2.1 61.1 2.1 72.4 0 16.2-3.1 21.2-7 35.5-27.6 1.3-2 2.7-2.3 5.6-1.6 3.7 0.9 3.7 0.9 2.9 9.2-0.8 8.8-9.6 40.6-11.7 42.9-0.8 0.8-15.7 1.2-40.9 0.9-21.8-0.2-60.4-0.6-85.8-0.8-25.3-0.2-46.8-0.8-47.7-1.3-2.8-1.7-1.5-4.8 2.9-6.9 2.3-1.1 6-4.6 8.3-7.6l4-5.6 0.3-57.4c0.4-61.8-0.7-92.4-3.8-98.6-1.8-4-5.4-5.9-16.9-8.7-5.7-1.5-9.3-5.9-8-9.6 0.7-1.5 18.1-1.7 94.5-1.5zm87.8 1.9c-5.4 1.9-25.8 2.4-91.1 2.4-43.2 0-78.8 0.3-79.1 0.7-0.2 0.2 1.5 0.9 3.9 1.4 9.7 2 13.3 4 17.2 9.8 2.1 3.2 3.9 6.5 3.9 7.6 0 1 0.6 2.2 1.3 2.6 1.9 1.2 1.6 6-0.3 5.6-1.2-0.1-2 2.4-2.4 8.2-0.4 4.5-0.1 8.2 0.6 8.2 1.2 0 0.5 5.8-1.2 9.8-0.7 1.6-0.4 2.2 0.6 2 1.8-0.4 1.9 7.4 0.7 35.4-0.7 12.3-0.4 14.3 1.2 13.8 1.6-0.7 1.9 0.1 1.6 3.4-0.3 2.4-0.9 5.2-1.3 6.4-0.6 1.2-0.3 5.1 0.5 8.7 1.2 5.5 1.2 6.7-0.5 8-2.4 1.7-2.8 6-0.8 8 0.8 0.8 0.5 6-0.8 15.1-2 13.4-2.8 15.6-10.8 26.6l-2.3 3.2 4.1-2.1c4.3-2.3 15.1-16.9 15.1-20.8 0-1.2 1.2-3.6 2.5-5.3 2-2.7 2.3-4.2 1.2-8.6-1.6-7.2-0.9-12.2 1.6-12.2 2.7 0 3.9-2.7 1.4-2.8-4-0.3-4.2-0.6-2.2-3.5 1.2-1.6 2.2-5.2 2.2-8 0-2.7 0.6-5.3 1.4-5.9 0.8-0.4 1.1-2.2 0.6-4.1-0.6-2.4-0.2-3.9 1.4-5.1 2.2-1.4 2.2-1.7-0.5-3.2-1.6-0.8-2.9-2.4-2.9-3.4 0-1.2-0.7-3.2-1.6-4.7-1.4-2.1-1.2-3.1 1.3-5.7 1.6-1.8 2.9-4.2 2.9-5.5 0-1.3 1.2-3.9 2.7-5.7 1.5-1.9 2.7-5.1 2.7-7 0-1.8 0.2-10 0.8-17.8 0.5-9.2 0.2-14.3-0.6-14-0.8 0.2-1.3-0.3-1.3-1 0-0.8 0.5-1.2 1.1-1 2 0.5 2.8-4.4 2.1-13.4l-0.7-8.8 7.4-4.9 7.4-4.9 22.8-0.6c40.6-0.9 81.5 4 77.2 9.4-0.8 1-0.1 3.8 2 8.2l3.4 6.7-1.1-5.3c-0.5-3-1.1-7.6-1.2-10.4-0.1-2.8-0.7-5.4-1.1-5.8-1.2-1.2 0.7-5.8 2.4-5.8 1 0 2.4-1 3.4-2 0.9-1.1 1.4-1.9 1.2-1.9zm-22.6 76c-1.8 4.4-8.1 8.1-16.6 10-3 0.5-21.6 1.1-41.6 1.2-35.9 0-40.3 0.5-37.9 4.4 0.8 1.5 9.3 2 36.9 2.5 19.8 0.4 39.9 0.4 44.8-0.1 8.3-0.9 9-1.2 10.6-5.2 0.9-2.4 2.6-5.7 3.8-7.6 1.4-1.9 2.8-4.7 3.2-6.4 1.5-4.4-1.3-3.6-3.2 1.2zm-104.5 10.8c-1.6-0.4-2.3 0.1-1.9 1.3 0.4 1 1.8 2 3 2.2 1.6 0.4 2.2-0.2 1.8-1.4-0.4-0.9-1.7-2-2.9-2.1zm1.9 36.4c-0.8-0.5-1.4 1.5-1.4 4.9 0 7.2 1.2 12 2.8 11 1.8-1 1.5-6.8-0.2-8-0.8-0.4-1.1-2.3-0.7-3.9 0.4-1.7 0.3-3.6-0.5-4zm-3.1 26.8c-0.5 0.5-0.5 1.3-0.1 2 0.8 1.3 4.5 0 4.5-1.6 0-1.3-3.2-1.6-4.4-0.4zm129.6 11.2c-11.3 14-29.1 18.1-72.4 16.8-15.5-0.4-30.4-1.2-33.2-1.6-4.5-0.8-5.1-0.5-4.7 1.6 0.8 4.4 15.5 6.3 53.1 6.4l34 0.1 9.6-5.7c8.4-4.9 10.3-6.8 15.7-15.7 8.4-13.9 7.9-14.3-2.1-1.9zm-126.5-4c-0.7 0-1.4 0.5-1.4 1.3 0 0.7 0.7 1.4 1.4 1.4 0.8 0 1.3-0.7 1.3-1.4 0-0.8-0.5-1.3-1.3-1.3zm0.8 8c-1.1 0-2.2 0.9-2.7 2-0.5 1.3 0.1 2 1.9 2 1.4 0 2.6-0.9 2.6-2 0-1.1-0.8-2-1.8-2z"/>
	<path id="Layer" class="s1" d="m317.3 86.6c0 2.8 0.3 3 1.8 1.8 1.4-1.2 1.4-2 0.4-3.3-2-2.5-2.2-2.4-2.2 1.5z"/>
	<path id="Layer" class="s1" d="m310.3 89.2c-1.4 1.6-1.4 2 0.4 2 2.5 0 4.1-2.1 2.4-3.2-0.7-0.4-1.9 0.2-2.8 1.2z"/>
	<path id="Layer" class="s1" d="m315.6 94c-1.5 1.1-1.6 1.6-0.4 2 0.9 0.4 1.2 1.8 0.8 3-0.7 1.7-0.4 1.8 0.8 0.8 0.9-1 1.5-2.8 1.2-4.4-0.3-2.2-0.8-2.4-2.4-1.4z"/>
	<path id="Layer" class="s1" d="m303.7 158.7c0 1.5 0.4 1.9 0.8 0.8 0.4-0.9 0.3-2.1-0.1-2.5-0.4-0.6-0.8 0.2-0.7 1.7z"/>
	<path id="Layer" fill-rule="evenodd" class="s1" d="m1246.3 117.2c1.2 1.1 3.4 4.6 4.9 7.6 16.1 32.6 48.3 98.4 51.9 105.9 4.2 9.1 7 12.7 13.2 17.2 2.5 1.9 2.5 1.9-1.6 2-3.2 0-5.9-1.3-9.8-4.8-5.6-5.1-7.6-3.5-2.6 1.9 3.7 4 6.5 4.4 22.6 3.2 13.8-1 14-1 16.8-5.2 4.3-6.3 4.8-15.4 4.4-74-0.2-33.6 0.2-53.6 1-54.4 2.1-2.2 8.2 1.6 15.8 9.3 3.6 3.6 7.1 6.7 7.8 6.7 0.6 0 14.4 11.8 30.5 26.2 16.1 14.6 30.9 27.6 32.9 29 1.9 1.4 8.7 7.6 15 13.6 9.7 9.3 16.6 14.1 17.7 12.2 0.1-0.1-0.1-16-0.5-35-0.8-38.2-1.2-40.6-9.1-43.5-9.3-3.5-10.9-4.5-10.9-7.5v-3h28.5c28.3 0 28.7 0 29.6 2.9 0.9 3.2-3.2 7.7-7.3 7.7-1.2 0-3.9 1.1-6 2.4-6.6 3.9-7.4 11.2-7.4 70.7-0.1 51.6-0.5 57.6-4.5 57.6-2.4 0-19.9-14.8-49.7-42-8.2-7.3-20.4-18.1-27.2-24-7-5.9-17.9-15.6-24.4-21.7-6.6-6-12.6-11-13.2-11-1.8 0-0.2 69.1 1.7 76.3 1.3 5.1 4.5 6.9 13.9 8.1 3.2 0.4 4 1.1 4 3.8v3.2l-28.4 1c-15.8 0.6-43.4 0.6-61.4 0l-32.9-1v-3.4c0-2.6 0.9-3.4 4.9-4.4 4.7-1 4.8-1.3 4.2-6-1.1-7-6.8-22.8-9.5-26-2.1-2.5-22.9-3.8-39.6-2.5l-12 0.9-4.9 11.4c-2.7 6.2-5 12.6-5 14.2-0.1 3.8 3.2 7 8 8 2.7 0.6 4.2 1.8 4.7 4 0.5 1.8 0.5 3.6 0.1 4-0.4 0.4-28.2 1-61.8 1.1-58.8 0.3-98-0.9-103.9-3.3-3.1-1.2-19.2-20.7-28.3-34.2-3-4.4-8-10.9-11-14.4-5.4-6.1-5.8-6.2-12.4-5.8l-6.8 0.4v20c0 17.2 0.4 20.5 2.5 23.6 2.9 4.4 0.7 5-4.3 1.6-3.4-2.4-5.7-1.5-3 1.2 0.8 0.8 4.6 1.6 8.5 1.7 3.9 0 8.3 0.1 9.9 0.3 3.3 0.2 6.6 5.2 4.8 7-1.8 1.8-68 2.2-69.9 0.3-3.2-3.2-0.7-6.4 6.1-7.3 3.8-0.6 7-0.4 7.4 0.2 1.3 2.3 9.2-3.8 11.2-8.5 1-2.7 3.2-6 4.5-7.5 2.5-2.8 4.8-10 3.7-11.8-0.4-0.6 0-5.4 0.7-10.8 1.1-7.1 0.9-10-0.1-10.7-1-0.5-1.1-2-0.3-4.1 0.7-1.8 1.3-15.2 1.5-29.9 0.4-36.8 0.6-37.5 21.6-37.9 13.8-0.2 30.5 2.4 36.2 5.9 5.1 2.9 10.6 9.7 12.8 15.6 1.5 4.1-0.4 9.3-3.2 8.3-2.2-1-2.5-0.2-4.6 10.4-1.1 5.4-2.7 8.8-6 12.2-2.4 2.7-5.1 4.8-5.9 4.8-0.8 0-1.5 0.6-1.5 1.4 0 2.6 4.6 1.3 10-3.1 8.4-6.4 17.6-24.3 15.9-31.1-1.2-4.8 1.6-8.6 5.5-7.7 5 1.2 4.1-1.7-2.3-8.1-9.9-9.9-14.8-10.7-62.7-10.8-33.2 0-40.1 0.2-36.2 1.6 5.4 1.8 8.5 4.2 8.5 6.5 0 0.9 1.2 2 2.5 2.4 2.4 0.5 2.7 2 2.7 16.8 0 10-0.5 16.1-1.3 16.1-0.8 0-1.1-0.4-0.7-1 0.3-0.6 0.1-4.3-0.5-8.3-1-5.9-1.2-3.1-1.2 13.3-0.3 31.8-0.2 32.6 2 33.8 2.1 1.2 2.6 7.6 0.5 7.6-0.7 0-1.3 1.4-1.3 3.3 0 2.1 0.8 3.3 2 3.3 2.9 0 2.4 2.6-2 10-2.2 3.6-4 7.6-4 8.8 0 2.3-6.3 8.8-7.4 7.6-0.4-0.4 0.6-2.9 2-5.4 2.8-4.7 2.8-5.9 2.4-54.2-0.4-55.3 0.3-51.4-10.6-56.8-5.4-2.5-9.1-6.4-7.6-7.8 0.4-0.4 19.2-1.1 41.8-1.5 44.2-0.7 51.9 0 65.9 6 12.3 5.3 20.1 17.3 20.1 30.7 0 13.3-7.6 23.8-22.2 31.2-7.6 3.7-7.9 4-5.8 6.5 0.8 0.9 3.1 3.7 5.1 6.4 8 10.8 19.7 24.5 26.8 31.9 9.7 10 16.7 13.4 26.8 13.4 14.8 0.2 14.7 0.6 14.7-53.3-0.2-54-1.2-60.3-11-62.8-6-1.7-10.8-7.5-7.6-9.5 1.1-0.6 2.7-0.9 3.6-0.5 1.1 0.4 16.8 0.7 35.1 0.7h33.3l-0.4 3.6c-0.4 3.2-1.4 4-8.1 6.1-12.7 4-12.3 1.9-12.7 57.6-0.2 43.9-0.1 48.4 2 52.7 2.7 5.2 8.6 7.3 16.7 6.2 11.5-1.4 15.7-7.3 36.3-48.9 2-4 9.4-18.4 16.4-32 15.7-30.3 15.3-29.3 20.2-40.3 2.2-4.8 5.4-10.1 7-11.6 2.6-2.5 3.2-2.5 5.2-0.8zm-1.8 9.4l-2-6.7-1.4 4c-1 2.1-5 10.5-9.1 18.7-4.3 8-15.1 29.3-24 47.3-9.1 18-17.5 34.5-18.8 36.7-8.1 14.1-10.4 17.2-15.2 20.6-5.9 4.3-4.4 5.2 4.3 2.7 4.4-1.3 5.3-2.8 15.3-22.9l10.7-21.5 26.6 0.9c18.6 0.7 27.9 0.6 30.6-0.5 3.3-1.2 4.5-1.1 7.6 1.3 4.5 3.4 6.4 3.4 8.8 0.3 1.7-2.1 1.7-2 0.9 0.9-0.8 3.1 1.5 6 3.7 4.7 2.8-1.7-0.8-11.3-15-39.9-3.5-6.8-4-7.3-3.5-3.7 0.3 2.4 0 4.4-0.7 4.4-1.2 0-1.2 0.4-1.6-9.3-0.2-3.9-1-7.5-2-7.8-0.8-0.2-1.4-1.3-1.4-2.4 0-1-1-1.8-2-1.8-1.1 0-2 0.9-2 2 0 1 0.9 2 2 2 2.2 0 2.5 1.2 0.6 4-0.9 1.6-1.3 1.4-2.1-0.7-0.5-1.5-2-3.3-3.1-4.3-1.7-1.2-1.8-1.8-0.4-3.2 0.8-0.9 1.6-3.4 1.6-5.4 0-3.6-1.6-7.5-4.9-11.8-0.8-1-2.4-5-3.5-8.6zm114 3l-8-8.2-0.1 59.6c-0.1 42.1-0.7 60.6-1.7 63-1 1.9-3.1 4.3-5 5.2-3.4 1.9-3.4 1.9-0.4 2 1.8 0 4.8-1.3 7-2.9l4-2.9v-42.7c0-23.6 0.4-44.9 0.8-47.5 0.6-3.6 1.8-5.2 5.3-6.8 4.5-2.1 4.7-2.1 10.1 2 3.1 2.3 6.8 5.1 8.4 6.2 1.5 1 6.3 5.3 10.6 9.3 4.2 4 11.2 10.7 15.4 14.7 4.3 4.1 9.5 8.2 11.6 9.3 3.4 1.7 9.1 6.3 19.1 15.2 1.9 1.6 5.5 4.4 8 6.1 2.5 1.8 5.2 4 5.7 5 2 3.3 17.1 13.8 19.1 13.4 1.3-0.2 3.2-3.4 4.7-8 2-6.5 2.4-12.8 2.5-43.8 0.1-42.2 0.4-43.2 10.4-47.8l6.3-2.6h-9.4c-5 0.1-12.6 0.5-16.6 1l-7.4 1 5 2.2c2.8 1.2 6 2.3 7.2 2.3 1.4 0 1.8 0.5 1 1.6-0.6 0.9-0.9 17.2-0.5 36.4 0.5 21.5 0.3 37.6-0.7 42.3l-1.3 7.7-8.1-5.7c-7.6-5.2-16.2-12.3-33.2-27.6-3.6-3.4-7-6.3-7.4-6.7-0.4-0.4-3.6-3.1-7.3-6-3.6-2.9-11.5-9.9-17.3-15.5-11.1-10.6-26-22.5-28.4-22.5-0.8 0-5-3.7-9.4-8.3zm-210.9-2c-2.5 0.2-13.6 0.6-24.7 1l-20 0.6 6 2.3c4.4 1.7 6.8 3.7 8.7 7.2 2.9 5.5 2.9 13.7 0 16-2.3 1.7-2.7 6.7-0.7 7.9 0.8 0.4 1.4 2 1.4 3.4 0 1.4-0.6 2.6-1.4 2.6-0.8 0-1.3 3.4-1.3 7.6 0 5.4 0.4 7.2 1.3 5.7 1.1-1.7 1.4-1.6 1.4 0.3 0 1.3-0.6 2.4-1.4 2.4-2.4 0-1.4 4.1 1.6 6.5 3 2.4 2.4 5.5-1 5.5-1.5 0-1.9 2.2-1.9 10.5 0 5.9 0.7 11.1 1.3 11.5 0.8 0.5 1.4-1.1 1.4-4 0-3.2 0.5-4.6 1.4-3.9 0.8 0.4 1.2 2.4 0.8 4.4-0.8 4.3 1.6 17.5 3.2 17.5 0.7 0 1.4-4.4 1.5-9.8 0.1-5.2 0.4-12.6 0.5-16.2 0.2-3.8 0.4-21 0.7-38.3l0.5-31.7 4.7-1.5c2.5-0.8 6.7-2.4 9.2-3.5 2.5-1.2 6.1-2.5 8-3.2 3.1-0.8 2.9-0.9-1.2-0.8zm-158.3 11.9c-0.5 0.9-1.2 12.8-1.4 26.1l-0.6 24.6 11.8-1c13.2-1 20.9-3.6 25.7-8.2 4.8-4.7 5.6-19.2 1.6-27.6-4.3-8.7-9.1-12.3-19.2-14-11.1-1.9-16.5-1.9-17.9 0.1zm44.4 7.7c-1 0-1 2 0.3 3.2 0.5 0.6 0.9 2.3 0.9 3.8 0 1.8 1.1 2.9 3.1 3.2 3.9 0.6 3.9-2.4-0.3-6.7-1.7-2-3.4-3.5-4-3.5zm-24.5 44.8c-4.9 1.1-1.3 4.2 6 5 6.4 0.6 11.2 4.4 14.8 11.6 2.9 6 8.8 13.2 13.7 16.9 7.5 5.7 17.2 13.7 23.5 19.3 5.3 4.8 9.7 6.6 9.7 3.9 0-0.7-1.2-1.6-2.5-2.1-3.1-1-18.9-17.1-28.3-28.7-3.7-4.8-9.7-12-13.2-16-9.4-10.8-12.9-12.3-23.7-9.9zm-16.8-0.1c-5.2-0.8-6.4-0.7-5.9 0.8 0.4 1.1 3.5 2.3 7.1 2.8 6.8 0.9 10.4 0.1 7.2-1.6-1.1-0.7-4.8-1.5-8.4-2zm23.1 8.7c-0.7 0-1 0.5-0.6 1.3 0.4 0.7 1.1 1.3 1.5 1.3 0.3 0 0.5-0.6 0.5-1.3 0-0.8-0.6-1.3-1.4-1.3zm271.6 16c-1.8-5.8-1.9-5.9-2.8-2.4-1 3.6 1 9 3.3 9 0.8 0 1.3-0.1 1.3-0.4 0-0.1-0.8-2.9-1.8-6.2zm-8.8-1.5l-2.7-3.2 0.8 4c0.5 2.1 1.7 4.9 2.7 6 1.6 1.6 1.8 1.6 1.8-0.9 0-1.5-1.2-4.2-2.6-5.9zm-161.9 7.2c-0.4-0.5-0.8 0.3-0.7 1.7 0 1.5 0.4 1.9 0.8 0.8 0.4-0.9 0.3-2.1-0.1-2.5zm168.3 2.1c-0.6-1.4-0.8-1.4-1.6 0-1.2 1.8 0 3.8 1.3 2.4 0.4-0.4 0.5-1.4 0.3-2.4zm-164 6.8c-0.4-2.5-0.7-2.6-3-0.9-1.6 1.1-2.2 2.8-1.7 4 0.8 2-4.5 11.2-7.5 13.2-0.8 0.5-1 1.3-0.6 1.9 1.8 1.7 7.4-3.4 10.4-9.4 1.6-3.3 2.6-7.3 2.4-8.8zm174.8 1.4c-0.8 0-1 0.5-0.6 1.3 0.4 0.7 1.5 1.3 2.2 1.3 0.8 0 0.9-0.6 0.5-1.3-0.4-0.8-1.5-1.3-2.1-1.3zm-18.6 8c0 0.6 0.2 1.4 0.3 1.6 0.1 0.2-0.5 1.7-1.5 3.3-1.8 3.7-0.1 4 3.1 0.5 1.2-1.3 1.9-3.3 1.3-4.6-0.9-2.3-3.2-3-3.2-0.8zm-144 5.3c0 0.7 0.6 1.3 1.2 1.3 0.7 0 2.3 0.4 3.4 0.8 1.6 0.7 2 0.3 1.3-1.3-0.9-2.3-5.9-2.9-5.9-0.8zm54.7 1.3c0 0.7 0.5 1.4 1.2 1.4 0.7 0 2.4 0.4 3.7 0.9 2.2 0.8 2.2 0.7 0.6-1.3-2-2.6-5.5-3.1-5.5-1z"/>
	<path id="Layer" fill-rule="evenodd" class="s1" d="m1249.3 162.4c4.2 8.3 9.4 17.4 11.6 20.2 2.2 2.8 4 6.2 4 7.7 0 1.5 1 3.7 2.2 5.1 1.2 1.3 1.8 3.3 1.4 4.5-0.8 1.7-5 2-30.9 2-24.7 0-30-0.3-30-1.9 0-1.7 4.4-10.9 15.9-33.7 2.6-5.2 6.5-11.7 8.6-14.3 6.6-8.2 8.6-6.9 17.2 10.4zm-14 4.8c-2.2 0-16.6 28.8-15 30.4 2.5 2.6 32.1 3 31 0.4-0.2-0.5-3.7-7.6-7.7-15.8-4-8.2-7.7-15-8.3-15z"/>
	<path id="Layer" fill-rule="evenodd" class="s1" d="m870.1 121.2c22.2 3.6 40 14.8 52.6 32.7 6.8 9.9 8.2 13.7 10.4 27.6 5.6 36.5-21 71.5-60.4 79.6-12.2 2.5-16.2 2.5-32.3 0.7-20.5-2.4-30.3-6.4-46.1-19.4-10.2-8.1-15.9-16.9-20.7-31.8-3.2-9.9-3.3-11.5-2.1-22 1.6-13.5 3.7-20.3 10.1-30.8 11.6-18.8 36.9-34.3 61.3-37.2 12.4-1.5 13.9-1.5 27.2 0.6zm-70 20.7c-13.6 12.4-23.4 30.8-22.8 42.5 0.4 6.6 3.1 12.2 6 12.2 1.2 0 1.8 1.4 1.5 4.4-0.4 3.4 0.5 5.4 4.1 9.3 4.6 4.9 8 6.4 8 3.2 0-0.9-0.5-2.3-1.2-3.1-2.6-2.8-5.4-20.6-4.6-29.6 1.6-16.1 10.6-35.2 18.9-39.7 2.3-1.2 4.3-2.9 4.3-3.7 0-0.8 2.8-2.6 6.4-3.9 3.4-1.5 7.7-3.2 9.4-4 1.9-0.9 9.6-1.6 18.7-1.6 12.8 0 16.8 0.5 23.2 3.1 4.3 1.6 8.7 2.9 10 2.9 2.7 0 14.8 12.3 17.5 17.6 1 2 2.9 4.8 4.2 6.3 4.2 4.4 4 13.4-0.2 13.4-2.7 0-2.7 0.4-1.6 7 1.4 9.8 1.2 28.5-0.6 36.5-3.3 14.7-14.5 29.2-25.3 33.1-3.5 1.3-7.6 2.9-9.1 3.6-1.4 0.6-6 1.3-10 1.6-4 0.2-2.2 0.4 4 0.2 18.6-0.4 30.3-7.4 40.4-24.2 7.5-12.3 16.2-49.1 13.4-56.6-2-5-0.8-9.3 2-8.2 1.3 0.5 2.6 1.4 3.2 2.2 0.6 1 1 0.4 1-1 0-1.4-1.8-6-4.2-10.4-7.2-13.6-21.1-23.2-39.9-27.8-28.4-6.8-59.6-0.8-76.7 14.7zm36.6-4.8c-10.2 2.7-17.6 9.3-22.7 20.1-4.1 8.8-4.4 10.3-4.8 26.8-0.5 15.8-0.3 18.3 2.8 27 6.1 17.7 19.1 31.6 34.3 36.8 7.6 2.6 10.4 2.6 20.4 0 16.2-4.2 25.6-15 29.7-34.3 4-19.5-3.5-51.6-15.3-65.5-4-4.5-11.9-8.6-20.8-10.8-10.4-2.4-15.2-2.4-23.6-0.1zm86.5 33.1c-0.4-1.2-0.7-0.2-0.7 2.4 0 2.5 0.3 3.6 0.7 2.2 0.3-1.2 0.3-3.3 0-4.6zm-115.9 48.9c-1-2-2.6-3.1-4-2.8-2.9 0.5-3.2 2.9-0.4 2.9 1.1 0 2.4 2 3.1 4.3 1.2 4.3 8.5 12.8 17.3 20.1 2.6 2 4 3.6 3.4 3.8-0.6 0 3 1.2 8.1 2.5 11.5 3.1 14.5 2 4.3-1.5-8-2.8-11.4-4.9-16.7-11-1.9-2.2-5.7-6.4-8.4-9.5-2.8-3.1-5.7-7.1-6.7-8.8z"/>
	<path id="Layer" class="s1" d="m905.6 176.6c-0.4 0.6 0.1 1.3 1.3 1.3 1.2 0 1.8-0.7 1.4-1.3-0.4-0.8-1.1-1.4-1.4-1.4-0.2 0-0.9 0.6-1.3 1.4z"/>
	<path id="Layer" class="s1" d="m906.9 181.9c-0.4 0.7-0.1 1.3 0.6 1.3 0.8 0 1.4-0.6 1.4-1.3 0-0.8-0.2-1.3-0.5-1.3-0.4 0-1.1 0.5-1.5 1.3z"/>
	<path id="Layer" fill-rule="evenodd" class="s1" d="m540 124.6c4.3 0 4.9 0.4 4.9 3.2 0 4.1-2.1 5.7-10.5 7.6-11.7 2.5-11.3 0.9-12 56.1-0.3 36.5 0 48.3 1.2 49.7 2.4 3 34.9 2.7 46.5-0.4l8.6-2.2 5-9.4c2.8-5.2 5.4-9.8 5.6-10.5 0.3-0.7 2-0.8 4-0.3 3.1 0.7 3.6 1.5 3.6 6 0 2.8-1.2 9-2.6 13.5-1.5 4.5-2.7 8.9-2.7 9.5 0 0.6-1.2 3.7-2.7 6.9l-2.6 5.7-57.8-0.1c-36.8 0-58-0.5-58.5-1.3-2.3-3-0.7-4.7 6.4-7 12.3-3.8 11.9-1.7 12.3-56.4 0.2-32.1 0-48.9-1.1-52.4-1.5-5-7.6-10.2-12.1-10.2-3.6 0-8.4-5.1-6.8-7 1.3-1.6 7.7-1.7 71.3-1zm-17.1 3c-7.3 0.2-19.3 0.4-26.6 0.8l-13.4 0.8 5.8 2.6c4 1.7 5.8 3.4 6.4 6 0.4 1.8 1 4.4 1.3 5.6 0.4 1.2 0 7.8-0.8 14.6-1.3 11.1-0.3 39.5 1.1 30.6 1-7.2 2.9-5.8 2.9 2.2 0 4.7-0.7 8.7-1.5 9.2-1 0.6-1 1.1-0.1 1.8 0.9 0.5 1.6 7 1.7 15.8 0.3 13.8 1.1 17.1 3.2 13.6 1.2-2 1.8-10.4 3.2-48 1.5-36.6 2.2-43.6 4.4-46.2 0.8-1 1-1.8 0.3-1.8-2.3-0.1 13.6-5.4 19.5-6.5 4.9-0.9 3.6-1.2-7.4-1.1zm-26 91.6c-0.6 0-1.3 0.6-1.3 1.4 0 0.6 0.7 1.3 1.3 1.3 0.8 0 1.4-0.7 1.4-1.3 0-0.8-0.6-1.4-1.4-1.4zm85 19.8c-5.5 5.7-12.7 6.9-41.8 6.9-20.2 0-26 0.4-25.4 1.6 0.4 1.3 7.8 1.7 31.7 1.7h31.2l0.4-3c0.3-1.8 1.9-3.6 3.5-4.3 1.7-0.7 3.4-2.1 4-3.5 1.3-3.6 0.2-3.4-3.6 0.6zm-85-2.4c-0.6 0-1.3 0.5-1.3 1 0 0.7-2.1 3.6-4.8 6.7-4.8 5.7-4.5 6.8 1.2 4.1 3.3-1.4 6.3-6.2 6.3-9.8 0-1.1-0.6-2-1.4-2z"/>
	<path id="Layer" fill-rule="evenodd" class="s1" d="m636.3 124.2c67.7 0.8 72.1 1.3 88 9.4 23 11.9 34 25.6 36.6 46.2 1.8 14.2-1.8 30.2-10.1 44.4-7.6 12.9-27.1 25.8-46.7 31-15 3.9-29.3 4.7-70.2 4.3-31.5-0.3-35.9-0.7-36.6-2.5-1.3-3.5 3.4-5.8 11.9-5.8 7.6 0 7.7 0 11.2-5.7 2-3.1 5.3-8.3 7.5-11.6 3-4.7 3.8-7.5 3.7-12.7-0.3-22 1.6-75.8 2.9-82.2l1.6-7.5 15-0.9c15.8-1.1 25.7-0.4 42.1 2.8 19.9 3.8 28.7 8.6 36.8 20.1 3.2 4.7 4 12.1 1.2 13.2-1.3 0.4-1.6 4.4-1.2 17.3 0.8 24.3-3.2 36.8-16 49.6-7.1 7.2-20.1 13.6-27.7 13.6-2.3 0-4 0.7-4 1.5 0 2.3-22.2 0.8-32.3-2.1-4.9-1.4-9.5-2.2-9.9-1.6-6.2 6.2 40.6 8.1 59.1 2.4 9.7-3 12-4.6 22.1-14.4 7.9-7.9 15.6-21.6 17.6-31.1 0.6-2.5 1.9-5.7 3-6.9 1-1.2 1.6-2.8 1.2-3.5-0.4-0.7 0-3.5 0.6-6.4 1.2-4.1 1.1-6.4-0.8-11.5-1.2-3.6-1.8-7.3-1.4-8.4 0.4-1 0-2-0.8-2-0.8 0-1.2-0.4-0.8-0.8 1.3-1.3 6.4 2.2 5.6 3.9-0.4 1.1 0.4 1.7 2.1 1.7 3.3 0 3.5-2.8 0-7-1.5-1.9-2.7-4.2-2.7-5-0.1-3-12.9-14.1-21.8-18.8-14.8-7.8-33.1-10.1-80.2-9.7-20.5 0.1-36.1 0.5-34.8 0.8 1.5 0.4 4.8 1.9 7.4 3.5 2.6 1.6 6.4 3.6 8.5 4.5 3.5 1.5 5.3 6.9 2.3 6.9-0.7 0-1.4-0.5-1.4-1.2 0-0.6-0.8-1.4-1.7-1.8-1.3-0.6-1.7 2.1-1.6 11.8 0 9.4 0.5 12.7 1.9 13.2 1.2 0.6 1.3 1.2 0.4 2.4-0.8 1-1.4 3.5-1.4 5.8 0.2 2.2-0.2 4.8-0.8 5.7-0.5 0.8-0.5 2.1 0 2.9 0.6 1.1 1.2 1 2-0.2 0.8-1.4 1.2-1.1 1.2 1 0 1.8-0.5 3.1-1.3 3.1-0.7 0-1.3 0.9-1.3 2 0 1.1 0.6 1.9 1.6 1.7 0.8-0.2 2 2.2 2.8 5.5 0.9 4.7 0.8 6.3-1 7.9-2 2-2.1 1.7-2.1-2.4-0.1-4-0.3-4.3-1.5-2.3-1.7 2.9-0.2 26.7 1.6 25.5 2.8-1.6 0.8 6.1-3.8 15.4-3.1 6.2-5.9 10.2-7.4 10.4-2.4 0.6-2.4 0.4 0-4 2.2-4 2.4-8.5 2.4-53.7 0-35.7-0.4-50.1-1.6-52.1-0.8-1.5-3.8-3.5-6.6-4.3-6.4-1.9-9.2-4.1-10.3-7.9-0.8-2.5-0.4-2.9 3.5-3.3 2.4-0.3 18.8-0.3 36.4-0.1zm13.6 16c-1.2 1-1.2 96-0.2 100 1.2 4.1 9 6.2 23.9 6.2 10.4 0.2 13.1-0.4 20.7-3.7 12-5.3 15.3-7.9 21-16.5 6.3-9.4 9.6-21.2 9.6-34 0-28.2-13.4-46-38.6-51.6-6.8-1.5-35.1-1.9-36.4-0.4zm74.6 15.7c-0.5-2.1-0.6-2-0.8 0.8 0 1.9 0.8 4.5 1.9 6 1.5 2 1.9 2.1 2 0.4 0-1.1-0.5-2.5-1.2-3.3-0.7-0.7-1.5-2.4-1.9-3.9z"/>
	<path id="Layer" class="s1" d="m1036.9 167.4c0 0.6 0.7 0.9 1.4 0.5 0.8-0.4 1.3-1.1 1.3-1.5 0-0.2-0.5-0.5-1.3-0.5-0.7 0-1.4 0.7-1.4 1.5z"/>
	<path id="Layer" class="s1" d="m731.6 168.6c0 0.6 0.7 1.3 1.3 1.3 0.8 0 1.4-0.7 1.4-1.3 0-0.8-0.6-1.4-1.4-1.4-0.6 0-1.3 0.6-1.3 1.4z"/>
	<path id="Layer" class="s1" d="m734.8 186.6c-1.3 3.4 0.1 4.6 1.7 1.3 0.8-1.9 1-3.3 0.3-3.3-0.7 0-1.6 0.9-2 2z"/>
	<path id="Layer" class="s1" d="m963.6 198.6c0 1.8 0.5 3.3 1.2 3.3 0.5 0 0.8-1.5 0.4-3.3-0.3-1.9-0.8-3.4-1.1-3.4-0.2 0-0.5 1.5-0.5 3.4z"/>
	<path id="Layer" fill-rule="evenodd" class="s1" d="m231.6 213c5.5 1 14.8 2.8 20.7 3.6 5.8 0.9 12.6 2.5 15 3.4l4.3 1.8-0.3 27-0.4 27.1-3.8-0.3c-4.4-0.4-5.5-1.7-9.8-12.8-4-10.1-9.7-18.4-16-22.5-28-18.4-69-15.5-89.8 6.5-15.5 16.3-21.4 36.7-18.7 65.1 2.7 28.7 13.1 47.2 34.8 61.9 16.1 10.9 28.1 14.1 48 13 15.5-0.9 21.1-2.5 28.1-8 5.2-3.8 10.6-4.8 10.6-1.6 0 2.8 3.3 1.1 5.3-2.6 0.9-1.9 2.8-3.6 4.1-4 1.2-0.4 2.7-1.8 3.1-3.1 0.4-1.2 1.2-3.2 1.6-4.3 0.5-1-1.5 0.6-4.4 3.6-3.7 4-6.4 5.8-8.8 5.8-4.9 0-4.5-1.8 1.5-5.9 2.8-1.9 7-5.6 9.3-8.1 2.1-2.6 5.3-4.7 6.8-4.7 3.7 0 3.6 4.4-0.9 24.7-3.5 15-3.9 16-8.2 18.5-2.4 1.3-11 4-19.2 5.9-13.4 3-17.7 3.4-44.2 3.4-33.2 0.2-39.9-0.9-59-9.8-18.2-8.6-27.7-16.2-39.8-32.2-10.7-13.8-15.4-26.2-17.2-44.5-1.1-10.4 1-28.4 4.6-39.2 5.6-16.8 23.5-40.4 35-46.3 2.4-1.2 5.3-3.3 6.5-4.8 1.1-1.4 7.7-5.2 14.7-8.2 11.7-5.4 17.6-7.1 33.8-10.2 9.1-1.7 40.4-0.6 52.7 1.8zm-35.3-0.2c-24.3 2.4-23.1 2.2-41.8 8-4.6 1.5-11.4 4.7-15 7.2-3.8 2.6-7.4 4.6-8 4.6-0.7 0-6.2 4.9-12.4 10.9-19 18.7-26.3 33.1-28.2 55.5-1.3 14.4-0.5 17.3 5 17.8 2.2 0.3 4.4 1.2 4.8 2.3 0.4 1.2-0.3 1.5-2.3 0.8-1.5-0.4-2.8-0.4-2.8 0.3 0.1 2.4 5.3 7 7.9 7 1.6 0 2.8 0.8 2.8 2 0 1.1 0.5 2 1 2 0.7 0 2.6 3.2 4.2 7 3.3 7.8 6.5 12 8.2 10.9 2-1.2 1.4-4.1-1.2-4.8-1.4-0.4-2.9-3.1-4-7.5-1-3.7-2.5-7.4-3.6-8.2-0.9-0.8-1.4-2.7-1-4 0.4-1.6-0.2-3-1.5-3.5-1.2-0.4-2.1-2.1-2.1-3.7 0-1.6-0.7-3.6-1.6-4.6-1.1-1-1.1-2 0.1-3.3 0.8-1.1 1.7-5.5 2-9.7 0.9-11.4 2.9-18.6 8.9-30.6 9.6-19.4 12.7-23.8 22.4-32 7.9-6.6 12.2-9 24.8-13.8l15.2-5.9 19.1 0.8c18.7 0.5 30.1 2.5 45.1 7.6 10.6 3.5 13.8 4.1 18.5 3.2 4-0.8 5.5-3.6 2.9-5.2-0.6-0.4-4.1-1.3-7.7-2-3.5-0.8-10.3-2.3-15.1-3.3-4.8-1.2-16.4-3-26-4-9.4-1.1-17.8-1.9-18.6-1.8zm62 32.4c-0.7-1.7-1.2-1.8-1.2-0.6 0 1 0.5 3.2 1.2 4.6 0.6 1.8 1.2 1.9 1.2 0.7 0-1.1-0.6-3.2-1.2-4.7zm-165.5 74c-0.7 0-0.9 0.6-0.5 1.4 0.4 0.6 1 1.3 1.4 1.3 0.3 0 0.6-0.7 0.6-1.3 0-0.8-0.7-1.4-1.5-1.4zm38.8 19.4c-1.7-1.1-1.2 11.6 0.7 12.9 2.4 1.7-0.8 2.9-3.4 1.3-3.2-2-6.6-2.1-6.6-0.2 0 0.8 0.9 1.7 2.1 2.2 1.2 0.4 5.1 3.6 8.4 7.1 7.7 8 33.9 23.9 46.1 28 5.2 1.7 10 3.6 10.7 4.1 2.8 1.9 22.9 2.7 31.9 1.2 11.8-1.8 30-9.4 31.2-13.2 0.8-2.2-3.2-1.2-12.7 3.4-9.2 4.5-29.9 6.9-42.7 4.9-16.2-2.5-33.6-12.1-48.8-26.9-9.7-9.6-15.6-17.9-15.6-22.2 0-0.9-0.6-2.2-1.3-2.6z"/>
	<path id="Layer" class="s1" d="m810.1 259.5c-0.1 0.3-0.2 27.3-0.4 60.4l-0.2 60-3.2 6.3c-1.8 3.6-4 6.4-5 6.4-1 0-1.6 0.5-1.2 1.2 1.8 2.6 8.8-2.8 11.4-8.6 2.4-5.3 2.5-9.7 2.8-61.6 0.2-68.6 0.4-64.4-2-64.4-1.1 0-2.2 0.2-2.2 0.3z"/>
	<path id="Layer" fill-rule="evenodd" class="s1" d="m834.4 273.9c5.3 4.7 11.7 10 14.4 11.7 2.7 1.8 7.5 5.8 10.8 9 6 5.8 15.1 14.1 36 32.6 6.1 5.5 16.3 14.7 22.4 20.6 10 9.2 11.5 10.1 12.7 8 1.7-3.2 0.2-65.2-1.8-70.4-1.7-4.8-4.9-7.4-8.9-7.5-3.9 0-8.4-4.4-8.4-8 0-2.7 0.8-2.7 27.9-2.7l27.8 0.2 0.6 3.8c0.8 5.1-1 6.7-7.2 6.7-8.2 0-9.5 3.3-10.6 27.2-0.5 11.1-1 37.3-1 58.3-0.2 21-0.6 40.1-1 42.4-1.4 6.8-5.3 5.4-18.6-6.8-6.6-6.2-18.6-16.8-26.6-23.8-8-6.9-17.6-15.4-21.3-18.8-3.6-3.4-10.3-9.4-14.7-13.3-4.4-3.7-12.8-11.5-18.6-17.1-11.1-10.5-19.5-17.4-21.4-17.4-1 0 0.2 58.9 1.5 70.1 1.2 9.6 7.7 16.5 15.5 16.5 3.7 0 6.4 2.3 6.4 5.5 0 2.9-3.9 3.5-29 3.7-29.7 0.4-37.3-1.3-31.4-7.3 1.6-1.5 3.6-1.9 7-1.3 2.6 0.4 7 0.1 9.5-0.6 4-1 5.2-2.5 8.3-9.2l3.6-8v-46.1c-0.2-25.5 0.1-46.7 0.5-46.9 1.3-1.4 20.8 9.6 20.8 11.6 0 1.2 1.6 3 3.7 4.2 2 1.2 6.2 4.6 9.1 7.4 9.2 8.4 18.7 16.4 24.8 20.6 3.2 2.3 7.6 6.2 9.7 8.6 6.3 6.9 22.4 20.5 24.3 20.5 0.8 0 2.1 0.8 2.7 1.9 0.5 0.9 5.4 4.8 10.6 8.5 9 6.4 9.8 6.7 11.1 4.4 2.8-5.3 4-22.1 4-58.5 0-29.2 0.4-37.6 1.7-37.6 0.8 0 3.5-1.5 5.6-3.2l4-3.4-4.6 0.3c-2.6 0-9.6-0.4-15.6-0.9-8-0.8-11.1-0.7-11.1 0.4 0 0.8 1.3 1.4 2.8 1.4 1.6 0 5.1 1.2 7.7 2.8l5.1 2.8 0.4 29.5c0.1 16.3 0.5 33.2 0.8 37.6 0.1 4.4-0.3 11.1-1.1 14.9-1.3 6.4-1.7 6.8-4.1 5.5-1.5-0.8-6.8-5.1-11.7-9.6-4.8-4.4-13.4-12-18.7-16.7-5.5-4.6-14.4-12.8-19.9-18-5.4-5.3-12.2-11.3-14.9-13.3-2.7-2-7.5-6.1-10.7-9.2-9.4-9.3-25.7-23.1-34-28.9-3.2-2.3-5.7-4.8-5.7-5.9 0-3.2 8.3 1.7 18.8 11.2zm96.4 85.3c-0.3 0-0.5 0.6-0.5 1.4 0 0.6 0.6 1.3 1.4 1.3 0.7 0 1-0.7 0.6-1.3-0.4-0.8-1.1-1.4-1.5-1.4zm-107.7 29.5c-2.2-1.7-4.3 0.3-2.8 2.5 1 1.6 4.6 1.8 4.6 0.2 0-0.7-0.8-1.9-1.8-2.7z"/>
	<path id="Layer" fill-rule="evenodd" class="s1" d="m730.3 266.6c4.8 1.2 13 4.4 18.4 7 12.4 6 25.6 19.5 31.2 31.9 19.2 42.4-8.3 90.3-57.5 99.9-13.5 2.6-38.3 1.8-48.8-1.4-10-3.2-24.7-11.2-30.4-16.6-7.5-7.1-16.9-23.1-19.7-33.2-3.1-11.2-3.1-20.8 0-33.6 3.4-14.8 6.2-19.6 18.4-31.6 8.6-8.7 13.2-12 22-16.2 6.1-2.9 13.4-5.7 16.4-6.2 2.9-0.6 8-1.5 11.3-2 8.8-1.6 28.7-0.7 38.7 2zm-78 16.6c-2.2 2.2-4.7 4-5.6 4-1 0-1.8 0.6-1.8 1.4 0 0.6-1.7 3.2-4 5.7-2.1 2.5-6.1 8.7-8.9 13.7-4.4 8.2-4.9 10.6-5.5 20.8-0.5 11.4-0.5 11.6 2.3 10.8 2-0.5 2.5-1.2 1.5-2.4-1.5-1.7-0.6-3.3 2-3.3 0.9 0 1.6 2.4 1.6 6.1 0.1 4.4 0.9 6.8 2.9 8.7 1.6 1.5 2.8 3.2 2.8 3.9 0 0.8 0.9 1.3 2 1.3 2.4 0 2.8-7.3 0.5-8.8-2.5-1.5-0.5-27.6 3-37.9 3.7-11.6 4.5-12.8 12.9-21.7 6.5-6.7 8.7-8 18-10.9 5.9-1.9 15.7-3.8 22.1-4.2 10.7-0.8 12.2-0.5 22.2 3.4 5.8 2.2 12 4.1 13.6 4.1 1.7 0 6.2 3.2 11.2 7.9 7.2 6.9 8.1 8.2 6.5 10.1-0.9 1.1-1.5 2.3-1.2 2.5 0.3 0.2 2 1.4 3.9 2.6 1.7 1.2 2.4 2.2 1.4 2.2-1 0-1.4 0.8-0.9 2.2 0.5 1.3 0.1 1.8-0.8 1.4-0.9-0.2-1.6-1.4-1.3-2.8 0.2-1.2-0.6-2.1-1.8-2.1-1 0-2-0.7-2-1.6 0-0.8-0.4-1.2-0.8-0.7-0.4 0.4 0.2 4 1.2 7.9 7.4 24.8 5.2 55.6-4.9 71.2-5.7 8.7-20.8 16.3-33.5 16.8-6.6 0.3-21.4-1.5-25.6-3.1-2.8-1-2.9-0.9-1.8 1.2 1.7 3.2 28.8 6.8 33.2 4.4 1.4-0.8 3.8-1.4 5.3-1.4 4.7 0 19.2-8.6 24.3-14.3 6.5-7.5 13.3-20.4 13.3-25.6 0-2.5 0.8-4.5 2-4.9 1.2-0.6 2-2.6 2-5.1 0-2.4 0.5-4.8 1.3-5.6 0.7-0.7 1.5-9.7 1.8-19.9 0.1-10.2 0.8-19.4 1.4-20.4 1.2-2-4.6-11.6-9.7-15.6-6.4-5.2-22-14-24.8-14-1.6 0-5.9-0.8-9.5-1.8-22.6-6.6-59 0.4-71.8 13.8zm7.4 30.4c-3.3 16.2-0.5 38.6 6.8 52 10.4 19.1 20 25.6 39.1 26.7 20.1 1.1 32.5-6.9 38.8-24.8 4.4-12.9 5.2-22.4 2.7-38.5-2.2-14.4-7.9-29.2-12.4-32.6-1.5-1-3-2.9-3.5-4.1-1.2-3.3-11.2-10.1-16.9-11.7-27.4-7.4-48.7 5.6-54.6 33zm-28 35c-1.8 0-3 2.4-1.7 3.2 1.3 0.8 2.9-0.4 2.9-2.2 0-0.5-0.5-1-1.2-1zm22.3 5.3c-2.1 0-0.9 6.3 1.6 8.7 1.5 1.3 2.7 3.8 2.7 5.6 0 3.7 11.7 16.8 17.7 20 5.7 2.9 5.6 1.3-0.4-3.4-6.3-5-16.3-18.9-18.8-26-0.9-2.6-2.3-4.9-2.8-4.9zm-9.5 3.6c-0.4-0.8-0.6-0.1-0.6 1.7 0 1.9 0.2 2.6 0.6 1.6 0.3-0.8 0.3-2.4 0-3.3z"/>
	<path id="Layer" class="s1" d="m756.9 315.2c0 0.7 0.7 1.4 1.4 1.4 0.8 0 1.3-0.7 1.3-1.4 0-0.8-0.5-1.3-1.3-1.3-0.7 0-1.4 0.5-1.4 1.3z"/>
	<path id="Layer" class="s1" d="m635.7 325.6c-0.8 1.6-1.4 3.9-1.4 5.2 0.1 1.5 0.9 0.6 2.1-2.1 2.1-4.9 1.6-7.3-0.7-3.1z"/>
	<path id="Layer" fill-rule="evenodd" class="s1" d="m1195.5 268c2.2 0.6 4.8 2 5.6 3.5 0.8 1.5 1.7 11.1 2.1 21.5 0.7 16.5 0.5 19.2-1.5 20.8-3 2.5-5.6 0.1-10.5-10.3-4.5-9.6-9.6-15.2-16.8-18.9-7.5-3.8-20.3-6.7-29.5-6.7-7 0-9.7 0.8-18.8 5.5-9 4.6-11.4 6.8-16.4 13.7-7.3 10.5-8.8 16-8.8 34 0 12.8 0.4 16 3.6 23.7 10.8 27.5 32.2 39.6 61.6 35.1 9.1-1.3 11.5-2.4 16.8-6.8 3.5-2.9 8.8-8.3 11.8-11.9 5.4-6.6 10.6-9.4 13-7 0.8 0.8-0.1 6.8-2.5 16.1-4.7 18.8-6 20-28.3 24.3-12.9 2.5-17.8 2.9-32 2.2-28-1.3-46.6-7.8-60.1-21-13.1-12.8-22.5-33.9-22.5-50 0-14.7 8.8-34.8 20.2-46.2 16.7-16.6 25.2-21.2 43.1-22.5 13.3-1.1 63.2-0.4 69.9 0.9zm-29 4.6c4.7 1.2 11.2 3 14.7 4 4.5 1.3 7.5 1.4 10 0.5 4.9-1.7 4.8-4.8-0.3-5.2-2.1-0.3-7.8-1.1-12.6-1.9-17.6-2.9-25.8-1.2-11.8 2.6zm-35.6-2.3c-16.9-0.1-25.4 3.1-37.3 13.6-4.9 4.4-9.3 8.3-10 8.7-1.9 1.2-10.1 15.3-12.4 21-2.4 6.2-3.2 29.6-1.1 29.6 1.5 0 2.8-3.3 2.8-7.4 0-1.8 0.6-3.2 1.4-3.2 1.3 0 2.4 3.8 2.4 8.6 0 5.9 2.1 10 4.9 10 1.3 0 1.7-3.4 1.7-16.4-0.1-14.8 0.3-17.2 3.9-27.3 5.6-15.7 10.7-21.6 23.7-28 12.6-6.1 17.2-8 22.7-8.7 2.3-0.2 1.1-0.5-2.7-0.5zm-41.2 78.7c-0.4-0.6-0.8 0.2-0.6 1.7 0 1.5 0.4 1.9 0.8 0.8 0.4-0.9 0.2-2.1-0.2-2.5zm3.6 5.7c-0.6 1.9 6 10.5 7.2 9.3 0.3-0.2-0.5-2.9-1.7-6-2.3-5.7-4.1-6.9-5.5-3.3zm-3 5.9c-0.7 0-1.4 0.9-1.4 2 0 1 0.7 2 1.4 2 0.8 0 1.3-1 1.3-2 0-1.1-0.5-2-1.3-2zm20.4 14.8c-5.8-5.8-9.8-8.8-9.8-7.6 0 1.2-0.9 2.1-2 2.1-4 0-1.8 3.7 3.4 5.9 3.7 1.4 5 2.6 4.5 4.1-0.5 1.3 0 2 1.5 2 3 0 10 4.3 10 6.1 0 0.8 1.7 1.9 4 2.3 2.1 0.5 6.8 2.1 10.2 3.7 5.2 2.4 9.1 3 21.8 3.1 17.2 0.1 25.7-2 33.8-8.8 4.2-3.3 13.8-17.1 12-17.1-0.4 0-4.4 3.8-8.9 8.4-10.8 11.1-13.6 12.7-25.6 14.4-12.7 1.9-27.1-0.1-37.9-5.3-4.8-2.1-11-7.1-17-13.3z"/>
	<path id="Layer" fill-rule="evenodd" class="s1" d="m313.1 267.2h35.8v3.8c0 5-2.2 6.9-8.2 6.9-7.8 0-9.4 4.4-10.2 26.9l-0.6 18.4h71v-17.8c0-20.7-1.7-27-7.7-28.2-2-0.5-5.1-1.2-6.9-1.4-3.6-0.8-5.4-2.7-5.4-6 0-2 3.6-2.3 36.8-2.4l36.8-0.3-0.9 3.7c-1.2 5.1-2.1 5.9-8.5 6.7-10 1.3-10 1.3-10.6 51.6-0.2 24.3 0 48.3 0.7 53.3l1.1 9.4 8.6 2.6c7.6 2.6 8.7 3.2 8.7 6.2v3.3l-34 0.3c-18.7 0.2-35.3 0.1-36.9-0.3-6.6-1.5-2.2-8.7 5.2-8.7 1.7 0 5.2-1.7 7.7-3.8l4.7-3.9v-46.3l-34.3-0.4-34.3-0.2-0.9 6.1c-1.1 7.2 0 40 1.5 43.5 0.5 1.4 4.2 3.3 9.2 4.8 8.2 2.4 11.2 5.8 7.2 8.4-1.9 1.2-66.6 1.6-69.8 0.4-1-0.6-2-2.2-2-3.9 0-2.4 1-3.2 5-4 6.4-1.2 11.6-4.9 13.6-9.7 1.2-2.8 1.4-17.4 1.2-52.6-0.4-47.2-0.6-49-3.2-52.6-1.6-2-4.3-4-6-4.2-1.8-0.2-3.8-1-4.4-1.7-0.8-0.7-2.4-1.2-3.6-1.2-2.4 0-4.4-3.5-3.1-5.5 0.4-0.6 16.5-1.2 36.7-1.2zm90.9 1.8c-8-0.6-11.1-0.4-11.1 0.8 0 0.8 1.1 1.4 2.4 1.4 1.4 0 4.6 2 7.2 4.3 4.7 4.3 4.8 4.5 4.2 12.3-0.6 5.6-0.4 7.6 0.8 6.9 1-0.7 1 0 0.1 2.5-0.8 2-1.3 8.7-1.3 15.1 0 6.4-0.6 12.4-1.2 13.3-0.8 1.5-9.8 1.8-44.6 1.5-32.8-0.4-44 0-45.2 1.2-0.9 0.9-2 1.6-2.4 1.6-0.4 0 0-10.8 0.8-24 1.2-20 1.9-24.4 3.9-26.7 1.3-1.4 2.9-2.6 3.5-2.6 0.6 0 3.3-1.5 6-3.4l4.9-3.3h-39.5l3.6 2.8c4 3.1 7.4 9.1 6.6 11.5-0.3 0.8 0.1 1.8 0.8 2.4 1.8 1 1.8 12.2 0.1 13.3-1.6 1.1-1.7 19.9-0.1 23.1 3.6 7 4.5 9.7 3.4 10.5-0.5 0.7-1.3 0.3-1.6-0.7-0.4-0.8-1.2-1.6-1.8-1.6-1.6 0-1.4 38 0.4 42.6 0.8 2.2 0.5 3.8-1 5.4-1 1.2-2 3.6-2 5.5-0.1 3.9-2.1 6.5-6.9 9.1-5.1 2.5-3.7 3.4 2.1 1.4 5.1-1.6 7.5-4.6 7.5-9 0-1.5 0.9-3.4 2-4.3 1.1-0.9 1.6-2.3 1.2-2.9-0.4-0.7 0.1-2 1.5-2.8 3.2-2.4 4.5-10.6 4.5-26.8-0.1-11.8 0.3-14.8 2-16.7 2-1.9 7.7-2.1 51.5-2.3 27.2-0.1 49.3 0.3 49.3 1 0 0.6-1.5 2.1-3.2 3.3-5.5 3.5-8 16.5-3.2 16.5 0.9 0 0.8 0.7-0.1 1.9-1 1.1-1.6 5.1-1.5 9.1 0.1 3.8-0.3 8.8-0.8 10.9-0.7 2.5-0.3 4.1 0.9 4.9 1.5 1 1.6 1.6 0.3 3.5-0.9 1.3-2.9 4.5-4.4 7.3-1.5 2.7-4.3 5.5-6.3 6.2l-3.7 1.3 3.5 0.1c4.2 0.2 10.8-6 13.8-13 1.2-2.7 2.7-5.9 3.4-7.1 0.8-1.3 1.3-8.3 1.3-15.3 0-7.2 0.5-15.2 1.3-17.6 1-3.4 0.8-5.2-0.2-6.4-1.2-1.5-1.1-2.3 0.4-3.1 1.3-0.9 1.4-1.9 0.5-3.3-0.9-1.5-0.8-10 0.1-25.8 0.8-12.9 1.6-23.7 1.8-23.8 0-0.2 3.8-2.8 8.5-5.8l8.3-5.3h-10.7c-5.9 0-15.6-0.4-21.6-0.9zm-78.5 122.2c-0.3 0-0.6 0.6-0.6 1.4 0 0.6 0.7 1.3 1.5 1.3 0.7 0 0.9-0.7 0.5-1.3-0.4-0.8-1-1.4-1.4-1.4z"/>
	<path id="Layer" class="s1" d="m408.9 370.8c0 1.4 0.7 3.4 1.4 4.4 0.9 1.5 1.3 1 1.3-2.4 0-2.2-0.5-4.2-1.3-4.2-0.7 0-1.4 1-1.4 2.2z"/>
	<path id="Layer" fill-rule="evenodd" class="s1" d="m512.7 267.5l50.2 0.4 9 4.4c14.4 7.3 20.4 14.9 22 28.1 1.4 12.7-4.4 23.4-18.6 33.6l-9.3 6.7 2.9 2.9c1.6 1.6 6.6 8.3 11.1 14.8 4.5 6.6 12.9 16.8 18.5 22.7 5.8 6 10.4 10.9 10.4 11.1 0 1.4-4.9-0.2-8.4-2.7-7.7-5.3-23.8-23.7-35.4-40.4-2.4-3.3-6.4-6.8-10.4-8.8l-6.4-3.2 6.9-5.1c3.7-2.8 8.3-6.9 10-9.2 1.7-2.2 4.5-5.6 6.3-7.2 2.5-2.4 2.9-3.4 1.7-4.6-1.6-1.6-2.3-17.9-0.8-21.6 1.5-3.9 3.2-2.3 3.2 3 0 3-0.7 5.5-1.6 5.9-0.9 0.3-1.2 1.1-0.7 1.7 1.6 1.6 5-3.2 5-7 0-3.4 1.3-3.9 3.7-1.5 1.2 1.2 1.6 0.8 1.6-1.9 0-5.4-5.7-11-15.6-15.2l-9.1-3.8-43.3-0.3-43.3-0.4 6 2.5c3.3 1.5 7.2 3 8.5 3.4 2 0.6 2.3 1.2 1.1 2.4-1.8 1.7-2 20.1-0.4 24.4 1 2.5 1 2.5 2.5 0 1.2-2.3 1.5-2.3 1.6-0.6 0 1.2-0.9 2.6-2 3.1-1.6 0.5-2 3.7-2 17.1 0 13.8 0.3 15.8 1.7 13.2 2.8-5.8 4.3-4.6 3.9 3-0.4 6.3-0.8 7.1-3.1 6.6-2.2-0.7-2.5 0.1-2.5 9 0.1 8.4 0.4 9.6 1.9 7.6 2.6-3.6 3.4-1.4 3.4 8.6 0 8.8 1.4 11.6 3.4 6.6 0.5-1.2 1.4-22.4 2.1-47 1.1-42.4 1.2-45.2 4-49.8 1.6-2.8 4.3-5.2 6.4-5.8 1.9-0.6 10.9-1 20.1-1 15.9 0.2 17.1 0.3 25.6 4.3 10.6 4.9 13.2 9.1 13.4 20 0.1 5.9-1 9.2-4.8 16.9-6 11.8-12 17.9-19 19.6-6.6 1.5-24.1 1.6-25 0-0.4-0.5 5.4-1.7 12.9-2.6 14.7-1.6 18.1-3.2 23.3-10.8 2.3-3.4 3-6.3 3-12.6-0.2-10-2.8-16.2-9.9-22.2-5.2-4.6-5.3-4.6-18.7-4.6h-13.4l-0.3 26.6c-0.1 14.5-0.5 26.8-0.9 27.2-2.2 2.1 0 2.9 7.6 2.9 11.7 0 16.6 1.7 24.8 8.7 9.3 8 12.1 8.1 6.6 0.5-2.2-3.2-2.4-3.9-0.6-3.9 1.2 0 2.1 0.8 2.1 1.9 0 1.1 0.9 2.1 2 2.5 1.1 0.6 3.5 3.4 5.6 6.6 6.9 10.8 28.5 34.8 34 37.7 2 1.1 6 2 8.9 2 7.2 0 17.2 2.8 18 4.9 1.2 3.1-0.5 5.5-4.6 6.3-3.9 0.7-34.4-1.2-40.8-2.5-5.5-1.2-19.6-17.2-36-41l-9-12.9-9.2-1.5c-4.9-0.9-9.3-1.3-9.6-1-0.2 0.2-0.1 9.8 0.3 21.4 0.9 24.4 2 26.7 12.9 28.3 4.7 0.8 6.2 1.5 6.2 3.5 0 1.3-0.7 2.8-1.6 3.3-0.8 0.5-16.3 1.2-34.4 1.6-29.9 0.5-33.1 0.4-35.2-1.7-3.4-3.4-2.2-5 5.2-6.8 3.6-1 8-3.2 9.8-5.2l3.5-3.5-0.4-50.9c-0.3-57.2-0.1-56.2-10.3-59-4.4-1.3-8.4-5.6-8.6-9 0-0.6 22.6-1 50.4-0.7zm-23.8 101.1c-0.6 0-1.3 1.2-1.3 2.8 0 1.4 0.7 2.2 1.3 1.8 0.8-0.4 1.4-1.7 1.4-2.8 0-1-0.6-1.8-1.4-1.8zm-2.4 14.9c-1 3.2-3.3 7.5-5.3 9.6-2.7 2.9-3.1 3.6-1.2 3.1 1.3-0.6 3.1-1 3.7-1 1.5 0 7.9-12.9 7.9-15.7 0-3.9-3.5-1.1-5.1 4zm27 9.2c-1.5 0-1.9 0.4-0.8 0.8 0.9 0.4 2.1 0.3 2.5-0.1 0.5-0.4-0.3-0.8-1.7-0.7z"/>
	<path id="Layer" fill-rule="evenodd" class="s1" d="m983.6 267.2h33.1c18.1 0 34.2 0.4 36 0.8 4.9 1.4 3.3 6.2-2.4 7.5-8.7 2.1-12.3 4.1-13.6 7.6-1 2.1-1.8 20.7-2 48.8-0.6 42.1-0.2 50.3 3 58.5 0.7 1.6 0 2.2-2.8 2.2-2 0-3.2 0.5-2.6 1.3 1 1.9 5.6 1.7 6.2-0.1 0.4-1.2 1.2-1.2 3.4 0 1.6 0.8 4.5 1.4 6.6 1.4 5.2 0 7.4 1.8 6.8 5.4l-0.4 3-33.3 0.3c-18.3 0.1-34.7-0.3-36.3-0.8-1.7-0.7-3-2.3-3-3.7 0-2.7 2.4-4.2 7.2-4.2 3.7 0 8.5-4.4 10.9-10.2 1.6-3.8 1.9-11.8 1.3-44.4-1-58.8-1.4-61.5-10.6-63.5-5.5-1.2-7.5-2.9-7.5-6.7zm36.4 3.4c-13.5 0-24.4 0.1-24.4 0.2 0 0.3 2.1 1.5 4.8 2.7 5.6 2.8 5.1-0.5 6.5 46.4 0.6 16.9 1.4 27.1 2.7 30.7 2.5 7.2 2.5 12.6 0 12.6-1.2 0-2 1.2-2 3.4 0 1.8 0.7 3.3 1.3 3.3 0.8 0 1.4-0.7 1.4-1.3 0-0.8 0.6-1.4 1.4-1.4 0.8 0 1.1 1.5 0.7 3.8-0.4 2-0.3 4.5 0.4 5.6 2.5 3.7 4-4.8 4.7-25.2 0.2-11.1 0.9-20.6 1.3-21.4 0.4-0.6 0.8-9.7 0.9-20.2 0.2-10.6 0.8-21.9 1.8-25.1 1.3-5.2 2.2-6.4 8.2-9.6 3.9-2 8.7-3.9 10.7-4.1 2.1-0.3-7.1-0.6-20.4-0.4zm-11.1 102c-0.6 0-1.3 0.5-1.3 1.3 0 0.7 0.7 1.3 1.3 1.3 0.8 0 1.4-0.6 1.4-1.3 0-0.8-0.6-1.3-1.4-1.3zm-3.2 12.8c-0.5 1.8-2.8 5.2-5.2 7.3-4.4 4.1-4.2 4.8 0.7 2.4 3.3-1.5 9.1-8.9 9.1-11.6 0-3.1-3.8-1.6-4.6 1.9zm21.4 0.9c-0.4-0.5-0.8 0.3-0.7 1.7 0 1.5 0.4 1.9 0.8 0.8 0.4-0.9 0.3-2.1-0.1-2.5z"/>
	<path id="Layer" class="s1" d="m1011.2 294.7c-0.5 0.5-0.9 1.9-0.9 3.1 0 1.4 0.4 1.6 1.4 0.5 0.8-0.8 1.4-2.1 1-3.1-0.3-0.8-1-1-1.5-0.5z"/>
	<path id="Layer" class="s1" d="m1010.3 331.1c0 3.3 0.8 3.6 1.7 0.8 0.5-1.1 0.3-2.3-0.4-2.7-0.8-0.5-1.3 0.4-1.3 1.9z"/>
	<path id="Layer" fill-rule="evenodd" class="s1" d="m1288.3 268.7c0.5 0.7 0.5 2.8 0.1 4.5-0.7 2.6-2 3.4-6.7 4-3.7 0.7-7 2.2-9 4.3-3.1 3.3-3.1 3.3-3.9 50.8-0.5 33.1-0.3 48.7 0.8 50.9l1.3 3.4 21.5-0.2c20.1-0.1 21.7-0.2 27.3-3.3 3.6-2 8.2-6.4 11.9-11.5 4.7-6.5 6.8-8.2 9.5-8.4 3.4 0 6.2 3.2 4 4.7-0.7 0.4-1.5 2.9-1.9 5.6-1.2 10.4-3.9 21.1-6.7 26.8l-2.6 5.9-12.2-1c-6.6-0.5-32.9-1-58.2-1.2-25.4-0.2-46.7-0.8-47.5-1.2-3.3-2.1 0-5.7 7.3-8.2 11.6-4 11.6-3.9 11.6-60 0-54.6-0.1-55.2-10.5-57.9-5.6-1.3-8.8-4.3-8.8-8 0-2 71.5-2 72.7 0zm-36 1.5c-14.7 0-25.5 0.2-24 0.6 1.4 0.4 4.2 1.9 6.1 3.2 2 1.4 5.1 3.1 6.8 3.8 3.5 1.3 6 8.2 4.1 11.3-0.6 0.8-1.3-0.4-1.7-3.1-0.4-2.5-1.5-4.8-2.3-5.2-2.1-0.6-2.4 33.9-0.4 37.1 1 1.5 1.4-0.5 1.4-6.5 0-10.6 0.8-10.2 1.8 0.8 0.7 6.6 0.4 8.4-1 8.4-1.4 0-2 2.8-2.4 10.9-0.6 10.8 0.2 13.5 3.6 12.3 1-0.4 1.6 2.5 1.7 9.7 0.3 9.3 0.1 10.1-1.6 7.7-1.1-1.4-2.1-2.4-2.5-2-1.4 1.5-2.4 24-1.1 24 0.7 0 1.7-1.2 2.1-2.6 0.4-1.5 2.3-3.1 4.2-3.5 2.4-0.7 3.2-1.9 3.4-4.7 0.2-2.1 0.4-5.4 0.6-7.6 0.1-2 0.6-21.2 1-42.6 0.6-31.5 1.1-39.8 2.7-42.3 1.6-2.5 9.3-5.6 22.8-9.3 0.8-0.2-10.7-0.4-25.3-0.4zm-11.9 80.8c-0.9 1.6 0.7 6.9 2 6.9 0.7 0 1.2-1.9 1.2-4 0-3.7-1.7-5.3-3.2-2.9zm88.3 29.4c-7.5 6.4-12.8 8.3-27.5 9.9-10.4 0.9-17.1 0.9-26-0.3-6.5-0.8-12.1-1.3-12.4-1.2-3.5 3.6 19.1 7.2 36.8 5.9 19.1-1.3 31.5-6.8 34-15.2 1.1-3.9 0.3-3.7-4.9 0.9zm-93 9.4c-4.5 6.2-3.4 7 3.5 2.8 2.9-1.8 4.1-3.4 3.6-4.7-1.2-3.1-4.1-2.4-7.1 1.9z"/>
	<path id="Layer" class="s1" d="m1243.6 368.6c0 1.4 0.7 2.6 1.3 2.6 0.8 0 1.4-1.2 1.4-2.6 0-1.5-0.6-2.7-1.4-2.7-0.6 0-1.3 1.2-1.3 2.7z"/>
	<path id="Layer" fill-rule="evenodd" class="s1" d="m1408.9 267.2h59.9l0.8 4.3c0.4 2.4 0.7 10.4 0.4 17.7-0.4 13.2-0.4 13.4-3.7 13.4-2.8 0-3.8-1.1-5.8-6.8-3.8-10.8-6.1-11.6-34.1-11.8l-23.5-0.1v41.3l6 0.4c3.4 0.3 11.6 0.2 18.4-0.4 11.4-0.8 13-1.3 17.1-4.9l4.5-4v3.5c0 2.5-1.2 4.2-4.2 6.1-3.8 2.3-6.8 2.7-21.2 2.7-24.6 0-37.2 1.2-37.2 3.7 0 1.3 0.5 1.6 1.7 0.7 0.9-0.7 13.1-0.8 28.9-0.3 15.1 0.5 28.4 0.7 29.6 0.4 1.4-0.4 2.8-2.3 3.4-4.3 1-3.8 1.2-13.2 0.2-16-0.9-2.9 3.5-5 6-3 1.8 1.4 2.2 5.2 2.2 22.4 0 11.6-0.6 21.7-1.4 23.2-2.4 4.4-6.2 3-9-3.2-4-9.1-5.1-9.5-25.2-10.3-10.6-0.4-18.4-0.1-19.2 0.5-0.7 0.8-1.2 10.6-1.2 21.8 0 19.4 0.1 20.4 2.9 21.8 2 1.1 9.5 1.4 24.3 1 25.3-0.8 28.2-1.8 36.9-12.7 6.8-8.5 9.6-10.4 12.9-8.5 2.8 1.4 3-0.7-2.9 25.8-1.1 5-2.7 9.9-3.5 11-1.3 1.6-11.2 1.8-61 1.4-32.8-0.2-60.7-0.5-61.9-0.6-3.3-0.2-3.1-5.1 0.3-6.8 1.6-0.8 5.3-1.2 8.4-1 3 0.3 4.2 0.3 2.6 0-3.3-0.6-4.2-3-1.2-3 1.1 0 3.2-1.6 4.7-3.5 2.7-3.5 2.8-4.9 2.7-52.4 0-34.1-0.6-50.1-1.6-53.5-1.4-4-2.6-4.8-8.3-6.4-6.9-2-8.7-3.3-8.7-7.3 0-2.1 3.8-2.3 60-2.3zm-40.6 2.3c-3-0.5-6.3-0.4-7.4 0.4-1.7 1.2-1.7 1.3 0 1.3 2.6 0.2 15.9 6.6 13.8 6.7-2.3 0-1.8 6.8 0.8 9.7 1.7 2.2 1.7 2.6 0.1 3.6-1.7 1.1-2 8.2-2 45.6 0 43-0.1 44.7-2.9 50.7-1.6 3.6-2.6 6.4-2 6.4 2.5-0.1 4.4-2.8 6.2-9.2 1.6-5.2 3-7.2 5.5-8.1 2.8-1.1 3.3-2 2.7-5.1-0.6-2-0.3-6.5 0.4-10.1 0.6-4 0.6-10-0.2-15.8-0.9-6.6-0.8-9.7 0.3-11 1.1-1.2 1.7-9.9 2-23.8 0.3-12 0.8-24.6 1.3-28 1-5.7 1.4-6.2 5.9-7.6 8.9-2.5 50.4-1.2 62.9 2 2.7 0.7 3.6 0.3 5-2.5 0.8-1.9 1-3.6 0.5-4-0.5-0.3-20.4-0.5-44.3-0.4-23.8 0-45.7-0.4-48.6-0.8zm95 113.1c-7.6 7-12.8 8-43.3 7.8-24.3-0.1-31.7 0.7-24.7 2.7 6.3 1.7 41.6 2.3 51.6 0.8 13.5-2.1 23.4-8.3 23.4-14.5 0-2.4-1.8-1.6-7 3.2z"/>
	<path id="Layer" class="s1" d="m1375.6 355.4c0.1 0.2 0.9 3.8 2 7.8 1.7 7.4 1.7 7.4 1.9 2 0-2.9-0.8-6.5-1.9-7.8-1.1-1.5-2-2.4-2-2z"/>
	<path id="Layer" class="s1" d="m489.2 287.2c-0.1 4.8 1.7 9 2.9 6.8 0.6-0.8 0.4-2.2-0.2-3.2-0.7-0.9-1.6-2.8-2-4.2-0.6-2.2-0.7-2-0.7 0.6z"/>
</svg>